<?xml version="1.0" encoding="utf-8"?>
<!-- Generator: Adobe Illustrator 27.5.0, SVG Export Plug-In . SVG Version: 6.00 Build 0)  -->
<svg version="1.1" xmlns="http://www.w3.org/2000/svg" xmlns:xlink="http://www.w3.org/1999/xlink" x="0px" y="0px"
	 viewBox="0 0 500 500" style="enable-background:new 0 0 500 500;" xml:space="preserve">
<g id="BACKGROUND">
	<rect y="0" style="fill-rule:evenodd;clip-rule:evenodd;fill:#FFFFFF;" width="500" height="500"/>
</g>
<g id="OBJECTS">
	<g>
		<rect x="0.398" y="435.602" style="fill-rule:evenodd;clip-rule:evenodd;fill:#3F2C44;" width="500" height="64.398"/>
		<path style="fill-rule:evenodd;clip-rule:evenodd;fill:#C6DEDA;" d="M411.467,435.601c41.972,0,76.31-34.339,76.31-76.311v-0.001
			c0-41.971-34.339-76.311-76.309-76.311h-0.001c-17.746-0.001-32.266-14.519-32.266-32.266v-0.001
			c0-17.746,14.52-32.266,32.267-32.266h3.84c18.45,0,33.546-15.095,33.546-33.546l0,0c0-18.45-15.096-33.546-33.546-33.546h-11.78
			c-7.183,0-13.059-5.877-13.059-13.06l0,0c0-7.183,5.877-13.061,13.059-13.061h8.656c4.957,0,9.014-4.055,9.014-9.013l0,0
			c0-4.958-4.057-9.013-9.014-9.013h-58.189c-7.791,0-14.163-6.373-14.163-14.163l0,0c0-7.79,6.372-14.163,14.163-14.163h17.397
			c4.958,0,9.015-4.057,9.015-9.014l0,0c0-4.957-4.058-9.014-9.015-9.014H178.664c-6.468,0-11.762,5.293-11.762,11.762l0,0
			c0,6.467,5.294,11.761,11.762,11.761h27.176c10.165,0,18.48,8.317,18.48,18.481v0c0,10.164-8.315,18.481-18.48,18.481H65.386
			c-6.468,0-11.761,5.293-11.761,11.761v0c0,6.469,5.292,11.762,11.761,11.762h11.295c9.373,0,17.042,7.669,17.042,17.042l0,0
			c0,9.372-7.669,17.042-17.042,17.042H61.31c-24.076,0-43.774,19.698-43.774,43.773l0,0c0,24.076,19.699,43.774,43.774,43.774
			h5.011c23.157,0,42.103,18.946,42.103,42.104l0,0c0,23.157-18.946,42.103-42.103,42.103H55.47
			c-23.349,0-42.451,19.103-42.451,42.451l0,0c0,23.348,19.102,42.45,42.451,42.45C176.266,435.601,290.671,435.601,411.467,435.601
			L411.467,435.601z M148.568,84.377c-6.496,0-11.762-5.267-11.762-11.762c0-6.496,5.267-11.762,11.762-11.762
			c6.496,0,11.762,5.266,11.762,11.762C160.33,79.11,155.064,84.377,148.568,84.377L148.568,84.377z M437.477,125.233
			c-4.978,0-9.014-4.035-9.014-9.013c0-4.978,4.035-9.013,9.014-9.013c4.978,0,9.013,4.035,9.013,9.013
			C446.49,121.198,442.455,125.233,437.477,125.233z"/>
		<path style="fill-rule:evenodd;clip-rule:evenodd;fill:#E2F1EE;" d="M411.467,435.601c41.972,0,76.31-34.339,76.31-76.311v-0.001
			c0-41.971-34.339-76.311-76.309-76.311h-0.001c-17.746-0.001-32.266-14.519-32.266-32.266v-0.001
			c0-17.746,14.52-32.266,32.267-32.266h3.839c18.451,0,33.547-15.095,33.547-33.546l0,0c0-18.45-15.096-33.546-33.547-33.546
			h-11.779c-7.183,0-13.059-5.877-13.059-13.06l0,0c0-7.183,5.877-13.061,13.059-13.061h8.655c4.958,0,9.015-4.055,9.015-9.013l0,0
			c0-4.958-4.057-9.013-9.015-9.013h-58.188c-7.791,0-14.163-6.373-14.163-14.163l0,0c0-7.79,6.372-14.163,14.163-14.163h17.397
			c4.957,0,9.015-4.057,9.015-9.014l0,0c0-4.957-4.058-9.014-9.015-9.014H217.666v27.832c4.061,3.397,6.655,8.497,6.655,14.172v0
			c0,5.676-2.594,10.775-6.655,14.172v318.571H411.467L411.467,435.601z M437.477,125.233c-4.978,0-9.014-4.035-9.014-9.013
			c0-4.978,4.035-9.013,9.014-9.013c4.978,0,9.013,4.035,9.013,9.013C446.49,121.198,442.455,125.233,437.477,125.233z"/>
		<path style="fill-rule:evenodd;clip-rule:evenodd;fill:#92B9B1;" d="M105.16,224.888h70.623V129.18H105.16V224.888L105.16,224.888
			z M170.393,182.549v36.948h-59.842V179.73h1.399v2.82H170.393L170.393,182.549z M170.393,174.339h-59.842v-39.769h59.842V174.339z
			"/>
		<path style="fill-rule:evenodd;clip-rule:evenodd;fill:#E2F1EE;" d="M108.926,224.888h70.623V129.18h-70.623V224.888
			L108.926,224.888z M114.316,219.498V179.73h59.842v39.768H114.316L114.316,219.498z M174.158,174.339h-59.842v-39.769h59.842
			V174.339z"/>
		<g>
			<path style="fill-rule:evenodd;clip-rule:evenodd;fill:#CAE7E2;" d="M377.494,76.486h-87.618v359.115h99.014h5.631h5.641h5.648
				h5.657c41.972,0,76.31-34.339,76.31-76.311v-0.001c0-41.971-34.339-76.311-76.309-76.311h-0.001
				c-17.746-0.001-32.266-14.519-32.266-32.266v-0.001c0-17.746,14.52-32.266,32.267-32.266h3.839
				c18.451,0,33.547-15.095,33.547-33.546l0,0c0-18.45-15.096-33.546-33.547-33.546h-11.779c-7.183,0-13.059-5.877-13.059-13.06l0,0
				c0-7.183,5.877-13.061,13.059-13.061h8.655c4.958,0,9.015-4.055,9.015-9.013l0,0c0-4.958-4.057-9.013-9.015-9.013h-58.188
				c-7.791,0-14.163-6.373-14.163-14.163l0,0c0-7.79,6.372-14.163,14.163-14.163h17.397C373.74,78.88,375.887,77.971,377.494,76.486
				L377.494,76.486z M437.477,125.233c-4.978,0-9.014-4.035-9.014-9.013c0-4.978,4.035-9.013,9.014-9.013
				c4.978,0,9.013,4.035,9.013,9.013C446.49,121.198,442.455,125.233,437.477,125.233z"/>
			<path style="fill-rule:evenodd;clip-rule:evenodd;fill:#739790;" d="M437.741,107.21v18.019c4.857-0.139,8.749-4.119,8.749-9.009
				C446.49,111.33,442.598,107.35,437.741,107.21L437.741,107.21z M437.741,160.014v49.771c6.813-6.15,11.112-15.041,11.112-24.886
				l0,0C448.853,175.054,444.554,166.164,437.741,160.014L437.741,160.014z M437.741,287.668V430.91
				c29.128-10.768,50.036-38.87,50.036-71.62v-0.001C487.777,326.539,466.869,298.436,437.741,287.668z"/>
			<path style="fill-rule:evenodd;clip-rule:evenodd;fill:#92B9B1;" d="M342.493,84.803h-52.617c-4.17,0-7.581-3.412-7.581-7.582
				l0,0c0-4.171,3.411-7.582,7.581-7.582h90.528c0.001,0.076,0.003,0.152,0.003,0.228l0,0c0,4.956-4.058,9.014-9.015,9.014h-17.397
				C349.271,78.88,345.07,81.224,342.493,84.803z"/>
			<path style="fill-rule:evenodd;clip-rule:evenodd;fill:#739790;" d="M429.009,113.126v6.188
				c-0.353-0.966-0.545-2.008-0.545-3.094C428.464,115.133,428.656,114.091,429.009,113.126L429.009,113.126z M429.009,154.297
				c-4.189-1.89-8.828-2.944-13.702-2.944h-11.779c-7.183,0-13.059-5.877-13.059-13.06l0,0c0-7.183,5.877-13.061,13.059-13.061
				h8.655c4.958,0,9.015-4.055,9.015-9.013l0,0c0-4.958-4.057-9.013-9.015-9.013h-42.758v319.663h59.584V285.03
				c-5.637-1.339-11.51-2.052-17.541-2.052h-0.001c-17.746-0.001-32.266-14.519-32.266-32.266v-0.001
				c0-17.746,14.52-32.266,32.267-32.266h3.839c4.874,0,9.514-1.054,13.702-2.944V154.297L429.009,154.297z M358.193,107.206h-4.198
				c-7.626,0-13.892-6.106-14.154-13.671h-41.232v333.334h59.585V107.206z"/>
			<path style="fill-rule:evenodd;clip-rule:evenodd;fill:#92B9B1;" d="M349.177,192.123h-0.001c-1.544,0-2.808,1.264-2.808,2.808
				v71.397c0,1.543,1.264,2.809,2.808,2.809h0.001c1.545,0,2.808-1.266,2.808-2.809v-71.397
				C351.984,193.387,350.722,192.123,349.177,192.123z"/>
			<path style="fill-rule:evenodd;clip-rule:evenodd;fill:#92B9B1;" d="M378.441,192.123L378.441,192.123
				c-1.545,0-2.808,1.264-2.808,2.808v71.397c0,1.543,1.263,2.809,2.807,2.809h0.001c1.544,0,2.808-1.266,2.808-2.809v-4.338
				c-1.322-3.516-2.048-7.315-2.048-11.278v-0.001c0-3.962,0.726-7.763,2.048-11.278v-44.502
				C381.249,193.387,379.985,192.123,378.441,192.123z"/>
		</g>
		<g>
			<path style="fill-rule:evenodd;clip-rule:evenodd;fill:#B3977F;" d="M351.815,295.261h117.429
				c5.851,0,10.637,4.788,10.637,10.638v129.702H341.178V305.898C341.178,300.049,345.965,295.261,351.815,295.261z"/>
			<path style="fill-rule:evenodd;clip-rule:evenodd;fill:#CCA88B;" d="M332.535,295.261h98.377c4.901,0,8.911,4.011,8.911,8.912
				v131.428H323.624V304.173C323.624,299.272,327.634,295.261,332.535,295.261z"/>
			<path style="fill-rule:evenodd;clip-rule:evenodd;fill:#FFFFFF;" d="M332.535,302.22h98.377c1.073,0,1.952,0.879,1.952,1.953
				v131.428H330.583V304.173C330.583,303.099,331.462,302.22,332.535,302.22z"/>
			<path style="fill-rule:evenodd;clip-rule:evenodd;fill:#4F3F55;" d="M395.134,334.427h-26.82c-1.252,0-2.275,1.024-2.275,2.276
				l0,0c0,1.252,1.023,2.275,2.275,2.275h26.82c1.252,0,2.275-1.023,2.275-2.275l0,0
				C397.409,335.451,396.386,334.427,395.134,334.427z"/>
			<rect x="330.583" y="401.117" style="fill-rule:evenodd;clip-rule:evenodd;fill:#4F3F55;" width="102.281" height="2.276"/>
			<rect x="330.583" y="367.772" style="fill-rule:evenodd;clip-rule:evenodd;fill:#4F3F55;" width="102.281" height="2.275"/>
			<rect x="330.583" y="334.427" style="fill-rule:evenodd;clip-rule:evenodd;fill:#4F3F55;" width="102.281" height="2.276"/>
			<path style="fill-rule:evenodd;clip-rule:evenodd;fill:#4F3F55;" d="M395.134,367.772h-26.82c-1.252,0-2.275,1.023-2.275,2.275
				l0,0c0,1.252,1.023,2.276,2.275,2.276h26.82c1.252,0,2.275-1.024,2.275-2.276l0,0
				C397.409,368.796,396.386,367.772,395.134,367.772z"/>
			<path style="fill-rule:evenodd;clip-rule:evenodd;fill:#4F3F55;" d="M395.134,401.117h-26.82c-1.252,0-2.275,1.024-2.275,2.276
				l0,0c0,1.252,1.023,2.276,2.275,2.276h26.82c1.252,0,2.275-1.024,2.275-2.276l0,0
				C397.409,402.142,396.386,401.117,395.134,401.117z"/>
			<path style="fill-rule:evenodd;clip-rule:evenodd;fill:#4F3F55;" d="M395.134,302.22h-26.82c-1.252,0-2.275,1.024-2.275,2.276
				l0,0c0,1.252,1.023,2.275,2.275,2.275h26.82c1.252,0,2.275-1.024,2.275-2.275l0,0C397.409,303.244,396.386,302.22,395.134,302.22
				z"/>
			<path style="fill-rule:evenodd;clip-rule:evenodd;fill:#4F3F55;" d="M430.912,302.22h-98.377c-1.073,0-1.952,0.879-1.952,1.953
				v0.323h102.281v-0.323C432.864,303.099,431.985,302.22,430.912,302.22z"/>
		</g>
		<path style="fill-rule:evenodd;clip-rule:evenodd;fill:#331C38;" d="M214.876,229.886c-0.426,0-0.772-0.345-0.772-0.771
			c0-0.426,0.346-0.771,0.772-0.771h8.847c1.879,0,4.255,0.163,6.219,1.506c1.979,1.355,3.468,3.849,3.468,8.452V448.52
			c0,0.426-0.346,0.771-0.772,0.771s-0.771-0.345-0.771-0.771V238.302c0-3.989-1.199-6.089-2.793-7.18
			c-1.609-1.102-3.691-1.236-5.351-1.236H214.876z"/>
		<path style="fill-rule:evenodd;clip-rule:evenodd;fill:#F8CFBE;" d="M226.102,173.544l-2.382,1.259c0,0,0.987,4.594,9.392,8.371
			C233.111,183.174,231.989,178.239,226.102,173.544z"/>
		<path style="fill-rule:evenodd;clip-rule:evenodd;fill:#F4AD85;" d="M291.657,283.203c0,0,1.053,136.383,1.104,137.488
			c0.053,1.105,0.998,2.737,0.998,2.737l-0.366,2.686c0,0-5.108,3.58-8.004,4.054c-2.896,0.475-7.054,0.685-8.423,0.264
			c-1.369-0.421-1.198-1.249-1.198-1.249s8.498-4.81,10.499-7.549c2-2.737-11.449-136.563-11.449-137.3
			C274.818,283.598,291.657,283.203,291.657,283.203z"/>
		<path style="fill-rule:evenodd;clip-rule:evenodd;fill:#EF8871;" d="M291.657,283.204c0,0,1.053,136.382,1.105,137.487
			c0.052,1.105,0.997,2.737,0.997,2.737l-0.366,2.686c0,0-5.108,3.58-8.003,4.054c-2.897,0.475-7.055,0.685-8.424,0.264
			c-0.153-0.048-0.286-0.1-0.402-0.154c-0.045-0.096,0.105-0.181,0.506-0.254c3.807-0.688,13.642-6.609,13.96-7.983
			c0.316-1.375-3.49-118.23-4.759-120.132c-0.932-1.397-6.934-2.624-10.061-3.178l-0.637-6.528l7.685-8.711
			C287.461,283.302,291.657,283.204,291.657,283.204z"/>
		<path style="fill-rule:evenodd;clip-rule:evenodd;fill:#D84F50;" d="M292.92,435.601h-28.326c0,0-1-0.456-0.789-1.378
			c0.21-0.922,0.974-1.658,1.553-1.763c0.579-0.107,5.686-0.291,9.897-3.397c0,0,4.738,1.106,5.633,1.212
			c0.896,0.105,8.556-2.475,12.872-6.846c0,0,0.896,0.922,1.054,1.686C294.972,425.878,295.497,432.432,292.92,435.601z"/>
		<path style="fill-rule:evenodd;clip-rule:evenodd;fill:#E67170;" d="M292.92,435.601h-28.326c0,0-1-0.456-0.789-1.378
			c0.079-0.348,0.237-0.67,0.436-0.94c0.587,0.465,1.556,0.695,2.242,0.738c0.94,0.06,27.623-0.662,27.643-0.663
			C293.829,434.192,293.436,434.965,292.92,435.601z"/>
		<path style="fill-rule:evenodd;clip-rule:evenodd;fill:#F4AD85;" d="M229.379,161.514c-2.072,6.963-4.663,14.616-7.376,20.042
			c-1.597,3.194-2.506,5.813-4.535,9.333c-1.391,2.413-7.292,8.914-20.783,21.172l-1.861,2.345c0,0-4.122,1.05-4.61,3.118
			l10.87,1.007c-0.041-0.428,0.53-3.55,0.53-3.55c2.771-2.661,14.941-9.303,22.446-17.975c6.905-7.979,10.461-17.692,13.746-27.274
			c0.923-2.692,1.704-5.139,2.366-7.365L229.379,161.514z"/>
		<path style="fill-rule:evenodd;clip-rule:evenodd;fill:#F4B4A3;" d="M299.942,161.01l4.008,0.546c0,0-0.308,7.751-12.193,13.871
			c0,0-0.411-5.265-0.454-6.217C291.26,168.257,299.942,161.01,299.942,161.01z"/>
		<path style="fill-rule:evenodd;clip-rule:evenodd;fill:#F4AD85;" d="M257.43,283.203c0,0,1.053,136.383,1.104,137.488
			c0.054,1.105,0.999,2.737,0.999,2.737l-0.367,2.686c0,0-5.107,3.58-8.003,4.054c-2.896,0.475-7.054,0.685-8.423,0.264
			c-1.37-0.421-1.198-1.249-1.198-1.249s8.498-4.81,10.5-7.549c1.999-2.737-11.449-136.563-11.449-137.3
			C240.592,283.598,257.43,283.203,257.43,283.203z"/>
		<path style="fill-rule:evenodd;clip-rule:evenodd;fill:#EF8871;" d="M257.43,283.204c0,0,1.053,136.382,1.104,137.487
			c0.054,1.105,0.999,2.737,0.999,2.737l-0.367,2.686c0,0-5.107,3.58-8.003,4.054c-2.896,0.475-7.054,0.685-8.423,0.264
			c-0.153-0.048-0.287-0.1-0.403-0.154c-0.044-0.096,0.107-0.181,0.507-0.254c3.807-0.688,13.641-6.609,13.959-7.983
			c0.317-1.375-3.49-118.23-4.759-120.132c-0.933-1.397-6.933-2.624-10.061-3.178l-0.636-6.528l7.684-8.711
			C253.234,283.302,257.43,283.204,257.43,283.204z"/>
		<path style="fill-rule:evenodd;clip-rule:evenodd;fill:#3F2C44;" d="M294.494,279.609c0.265,1.479,0.537,3.332,0.657,5.204v0.001
			l0.001,0.033c0.009,0.084,0.015,0.167,0.015,0.247c0.178,3.182,0.924,5.413-1.64,7.764c-2.563,2.352-40.281,6.215-50.247,1.57
			c0,0-1.676-0.562-1.961-2.846c-3.161-25.255-5.718-72.023,0.779-95.861c0.3-1.103,30.405-0.93,36.398,4.018
			c0.798-0.279,1.583-0.312,2.346-0.038c0,0-0.124,1.272,1.753,3.669c1.88,2.397,4.014,11.095,4.465,21.503
			C287.51,235.283,292.778,266.389,294.494,279.609z"/>
		<path style="fill-rule:evenodd;clip-rule:evenodd;fill:#F9C66A;" d="M244.476,139.551l-3.189-2.866c0,0-3.343,3.682-6.406,9.807
			c-3.062,6.126-10.14,26.337-11.161,28.311c0,0,7.146,3.675,9.392,8.371l5.036-9.12L244.476,139.551z"/>
		<path style="fill-rule:evenodd;clip-rule:evenodd;fill:#FFFFFF;" d="M225.197,171.113c-0.72,1.898-1.249,3.25-1.478,3.69
			c0,0,7.146,3.675,9.392,8.371l2.027-3.671C232.456,175.143,227.52,172.28,225.197,171.113z"/>
		<path style="fill-rule:evenodd;clip-rule:evenodd;fill:#331C38;" d="M294.494,279.609c0.265,1.479,0.537,3.332,0.657,5.204v0.001
			l0.001,0.033c0.009,0.084,0.015,0.167,0.015,0.247c0.178,3.182,0.924,5.413-1.64,7.764c-2.563,2.352-40.281,6.215-50.247,1.57
			c0,0-1.676-0.562-1.961-2.846l-0.159-1.291c38.366,4.653,50.333-85.963-2.204-75.117c0.606-4.672,0.885-17.079,3.141-19.454
			c0.814-0.857,30.405-0.93,36.398,4.018c0.798-0.279,1.583-0.312,2.346-0.038c0,0-0.124,1.272,1.753,3.669
			c1.88,2.397,4.014,11.095,4.465,21.503C287.51,235.283,292.778,266.389,294.494,279.609z"/>
		<path style="fill-rule:evenodd;clip-rule:evenodd;fill:#F9C66A;" d="M285.037,133.404c-3.97-2.338-9.419-3.393-13.806-3.324
			c-5.293,0.305-15.702-0.206-22.338,1.511c-1.977,0.512-8.804,4.234-10.096,9.496c-1.109,4.519-7.449,19.998-7.519,23.307
			c-0.069,3.31,5.835,17.722,5.835,17.722l2.319,17.939c0.141,1.093,0.254,2.193,0.331,3.314c0.892,12.925,42.173,4.68,41.684-1.452
			c-0.087-1.096-0.149-2.15-0.195-3.173h-0.001c0,0-1.53-10.503,0.635-21.639c2.164-11.136,2.861-15.789,2.861-15.789
			L285.037,133.404z"/>
		<path style="fill-rule:evenodd;clip-rule:evenodd;fill:#FFFFFF;" d="M274.627,130.236c-1.171-0.122-2.316-0.173-3.396-0.156
			c-5.294,0.305-15.702-0.206-22.338,1.511c-0.563,0.146-1.52,0.553-2.63,1.18c-0.609,6.773,4.673,11.16,14.209,8.882
			C267.785,139.906,272.686,133.316,274.627,130.236z"/>
		<g>
			<path style="fill-rule:evenodd;clip-rule:evenodd;fill:#3F2C44;" d="M188.463,435.601h7.344l109.261-95.044
				c0.598-0.521,1.389-0.521,1.986,0l109.262,95.044h7.343l-112.15-97.567c-0.433-0.379-0.665-0.922-0.665-1.553
				c0-0.632,0.232-1.174,0.665-1.553l79.388-69.382c0.973-0.851,1.166-2.462,0.439-3.597c-0.73-1.137-2.107-1.363-3.081-0.512
				l-81.2,70.966c-0.598,0.523-1.389,0.523-1.986,0l-81.2-70.966c-0.973-0.852-2.35-0.625-3.08,0.512
				c-0.728,1.135-0.535,2.746,0.438,3.597l79.388,69.382c0.433,0.379,0.665,0.921,0.665,1.553c0,0.631-0.232,1.174-0.665,1.553
				L188.463,435.601z"/>
			<path style="fill-rule:evenodd;clip-rule:evenodd;fill:#4F3F55;" d="M104.819,435.601h7.343l109.261-95.044
				c0.598-0.521,1.389-0.521,1.987,0l109.26,95.044h7.344l-112.151-97.568c-0.433-0.379-0.665-0.921-0.665-1.553
				c0-0.631,0.232-1.173,0.665-1.552l79.388-69.382c0.974-0.851,1.166-2.462,0.438-3.597c-0.729-1.137-2.107-1.363-3.081-0.512
				l-81.199,70.966c-0.599,0.523-1.389,0.523-1.987,0l-81.2-70.966c-0.973-0.852-2.351-0.625-3.081,0.512
				c-0.728,1.135-0.535,2.746,0.438,3.597l79.388,69.382c0.433,0.379,0.666,0.921,0.666,1.552c0,0.632-0.233,1.174-0.666,1.553
				L104.819,435.601z"/>
			<path style="fill-rule:evenodd;clip-rule:evenodd;fill:#331C38;" d="M130.547,246.895h260.078c5.269,0,9.578,4.31,9.578,9.578
				l0,0c0,5.27-4.31,9.579-9.578,9.579H130.547c-5.268,0-9.578-4.31-9.578-9.579l0,0C120.97,251.205,125.28,246.895,130.547,246.895
				z"/>
			<path style="fill-rule:evenodd;clip-rule:evenodd;fill:#B3977F;" d="M119.54,242.938h215.489c3.722,0,6.767,3.046,6.767,6.768
				v0.001c0,3.722-3.045,6.767-6.767,6.767H119.54c-3.723,0-6.768-3.045-6.768-6.767v-0.001
				C112.772,245.983,115.817,242.938,119.54,242.938z"/>
			<path style="fill-rule:evenodd;clip-rule:evenodd;fill:#CCA88B;" d="M401.634,242.938h-81.763c-3.723,0-6.768,3.046-6.768,6.768
				v0.001c0,3.722,3.045,6.767,6.768,6.767h81.763c3.723,0,6.768-3.045,6.768-6.767v-0.001
				C408.401,245.983,405.356,242.938,401.634,242.938z"/>
			<ellipse style="fill-rule:evenodd;clip-rule:evenodd;fill:#4F3F55;" cx="222.416" cy="336.672" rx="9.542" ry="11.148"/>
			<path style="fill-rule:evenodd;clip-rule:evenodd;fill:#8E8293;" d="M221.584,343.93c3.421,0,6.211-3.261,6.211-7.258
				c0-3.997-2.79-7.258-6.211-7.258c-3.422,0-6.212,3.261-6.212,7.258C215.372,340.669,218.162,343.93,221.584,343.93z"/>
			<ellipse style="fill-rule:evenodd;clip-rule:evenodd;fill:#331C38;" cx="306.061" cy="336.672" rx="9.542" ry="11.148"/>
		</g>
		<path style="fill-rule:evenodd;clip-rule:evenodd;fill:#E8685B;" d="M264.578,109.422l0.361,5.243c0,0,1.197,10.691,1.379,12.315
			c0.131,1.168,0.871,2.633,4.333,3.06c0.136,0.016,0.454-0.061,0.393,0.051c-4.728,8.804-23.301,12.716-22.061,1.484
			c0.003-0.038,0.068-0.042,0.102-0.062c4.057-2.44,2.645-12.47,0.269-14.886C247.314,114.556,264.578,109.422,264.578,109.422z"/>
		<path style="fill-rule:evenodd;clip-rule:evenodd;fill:#F4AD85;" d="M285.037,133.403c6.13,7.2,27.637,45.702,28.267,50.749
			c1.382,11.066-9.536,42.086-14.91,50.848c-0.475,0.774-1.501,0.823-1.575,0.436c-0.504-2.581-6.11-1.086-3.963-2.89
			c3.588-3.011,8.559-37.72,9.201-43.523c0.633-5.7-19.451-27.723-20.846-29.95c-1.393-2.228-0.607-1.04-0.93-1.703
			C280.271,157.31,277.517,139.424,285.037,133.403z"/>
		<path style="fill-rule:evenodd;clip-rule:evenodd;fill:#F09172;" d="M313.374,188.191c-0.78,12.653-10.178,38.978-14.98,46.809
			c-0.475,0.773-1.5,0.823-1.575,0.436c-0.037-0.188-0.099-0.357-0.181-0.515C300.777,227.111,311.56,201.408,313.374,188.191
			L313.374,188.191z M301.996,189.57c0.04-0.165,0.063-0.347,0.06-0.547L301.996,189.57L301.996,189.57z M302.003,188.067
			c-1.245-6.862-19.467-26.876-20.792-28.994c-1.393-2.228-0.607-1.04-0.93-1.703c-0.002-0.009-0.078-0.511-0.172-1.363
			l20.128,6.165c0,0-3.695,4.431-2.876,8.298C298.128,174.081,301.534,183.249,302.003,188.067z"/>
		<path style="fill-rule:evenodd;clip-rule:evenodd;fill:#D84F50;" d="M258.692,435.601h-28.326c0,0-1-0.456-0.79-1.378
			c0.211-0.922,0.974-1.658,1.553-1.763c0.579-0.107,5.685-0.291,9.897-3.397c0,0,4.738,1.106,5.633,1.212
			c0.895,0.105,8.555-2.475,12.872-6.846c0,0,0.895,0.922,1.053,1.686C260.744,425.878,261.271,432.432,258.692,435.601z"/>
		<path style="fill-rule:evenodd;clip-rule:evenodd;fill:#E67170;" d="M258.692,435.601h-28.326c0,0-1-0.456-0.79-1.378
			c0.08-0.348,0.238-0.67,0.436-0.94c0.587,0.465,1.556,0.695,2.242,0.738c0.94,0.06,27.622-0.662,27.643-0.663
			C259.603,434.192,259.21,434.965,258.692,435.601z"/>
		<path style="fill-rule:evenodd;clip-rule:evenodd;fill:#F9C66A;" d="M279.182,132.061l5.855,1.342c0,0,7.922,10.003,18.913,28.153
			c0,0-11.826,5.754-12.193,13.871c0,0-11.311-14.531-12.584-18.15C277.899,153.657,276.93,137.115,279.182,132.061z"/>
		<path style="fill-rule:evenodd;clip-rule:evenodd;fill:#E95A5E;" d="M296.602,166.662c-2.49,2.329-4.69,5.336-4.845,8.765
			c0,0-6.099-7.834-9.843-13.431c0.291-3.015,0.774-5.2,0.774-5.2l2.125-1.742C284.814,155.055,289.146,163.594,296.602,166.662z"/>
		<path style="fill-rule:evenodd;clip-rule:evenodd;fill:#EEA35D;" d="M296.602,166.662c-2.49,2.329-4.69,5.336-4.845,8.765
			c0,0-6.099-7.834-9.843-13.431c0.291-3.015,0.774-5.2,0.774-5.2l2.125-1.742C284.814,155.055,289.146,163.594,296.602,166.662z"/>
		<path style="fill-rule:evenodd;clip-rule:evenodd;fill:#FFFFFF;" d="M302.071,158.482c0.616,0.998,1.242,2.021,1.879,3.074
			c0,0-11.826,5.754-12.193,13.871c0,0-1.096-1.406-2.643-3.453C289.429,165.307,297.768,160.517,302.071,158.482z"/>
		<path style="fill-rule:evenodd;clip-rule:evenodd;fill:#F8EDED;" d="M296.602,166.662c-2.49,2.329-4.69,5.336-4.845,8.765
			c0,0-1.096-1.406-2.643-3.453c0.134-2.824,1.706-5.311,3.803-7.395C294.041,165.395,295.271,166.114,296.602,166.662z"/>
		<g>
			<path style="fill-rule:evenodd;clip-rule:evenodd;fill:#E95A5E;" d="M116.368,246.538c0,27.123-5.602,40.25-8.855,48.422
				c-3.253,8.172-1.175,15.312-1.175,15.312c0,13.684-14.109,18.8-15.046,23.432c-0.936,4.633,3.699,5.096,3.699,5.096
				c9.254,0.521,29.62,1.664,39.861,2.239c10.242,0.574,19.867-4.176,22.952-4.002c3.085,0.173,4.566,0.256,11.969,0.672
				c7.403,0.415,11.722,6.523,14.19,6.662c2.467,0.14,4.003,0.225,7.438,0.418c3.435,0.192,8.376,0.192,7.41-8.061
				c-0.966-8.253,2.806-12.288,8.854-10.696c3.293,0.868,6.285,3.357,7.413,4.587c2.109,2.298,3.855,2.8,4.157,1.363
				c0.301-1.437,1.446-6.296,1.446-6.296c2.108-2.707,11.869-0.464,14.641,0.902c2.771,1.367,3.494-0.532,3.494-0.532
				c2.048-4.405,3.374-24.512,3.374-35.168c0-10.656,0-32.611,0-32.611v-17.915l-121.347,0.962l-4.112,1.614
				C116.73,242.938,116.177,243.678,116.368,246.538z"/>
			<path style="fill-rule:evenodd;clip-rule:evenodd;fill:#DA3E3E;" d="M121.309,254.838c0,0-5.417,31.66,4.372,46.771
				c9.788,15.111,34.33,8.761,40.869-31.337c0,0,0-0.645-0.644-0.989c-0.644-0.344-1.245,0.73-1.652,2.211
				c-0.408,1.48-10.196,25.306-23.589,23.246c-13.395-2.061-19.586-13.936-17.52-38.563c0,0,0.263-1.827-0.446-2.327
				C121.99,253.35,121.475,254.107,121.309,254.838L121.309,254.838z M178.006,340.665c2.682,1.748,4.599,3.629,5.956,3.705
				c2.467,0.14,4.003,0.225,7.438,0.418c3.435,0.192,8.376,0.192,7.41-8.061c-0.302-2.58-0.141-4.748,0.408-6.462l0.007-0.021
				c0.295-0.907,9.768-30.092,13.149-51.907c0,0,0.044-0.343-0.3-0.439C211.764,277.81,197.61,325.577,178.006,340.665
				L178.006,340.665z M210.47,327.154c14.884-31.723,16.419-66.164,16.738-66.357c0.365-0.22,0.493,0.221,0.493,0.221
				c1.374,31.6-7.021,64.668-7.021,64.668s-1.145,4.859-1.446,6.296c-0.302,1.436-2.049,0.935-4.158-1.363
				C214.283,329.752,212.566,328.263,210.47,327.154L210.47,327.154z M196.598,269.582c0,0-2.469,76.393-84.722,59.565
				c0,0-0.708-0.215-0.729-0.773c-0.022-0.558-0.148-1.566,5.387-1.566c5.534,0,51.603,6.187,78.475-56.535
				C195.009,270.272,195.481,269.41,196.598,269.582z"/>
		</g>
		<path style="fill-rule:evenodd;clip-rule:evenodd;fill:#E95A5E;" d="M304.581,242.938L304.581,242.938L304.581,242.938
			c0-3.039-2.488-5.526-5.525-5.526H122.254c-3.036,0-5.524,2.487-5.524,5.526l0,0l0,0H304.581z"/>
		<g>
			<path style="fill-rule:evenodd;clip-rule:evenodd;fill:#4F3F55;" d="M275.676,52.688c-7.546,1.17-12.715,8.236-11.545,15.782
				c1.171,7.546,8.236,12.714,15.781,11.545c7.546-1.171,12.716-8.237,11.546-15.782C290.288,56.688,283.222,51.519,275.676,52.688z
				"/>
			<path style="fill-rule:evenodd;clip-rule:evenodd;fill:#331C38;" d="M268.084,56.508c-3.05,3.014-4.66,7.4-3.953,11.962
				c1.171,7.546,8.236,12.714,15.781,11.545c7.546-1.171,12.716-8.237,11.546-15.782l-0.009-0.051
				C286.332,71.229,271.892,65.473,268.084,56.508z"/>
			<path style="fill-rule:evenodd;clip-rule:evenodd;fill:#4F3F55;" d="M233.358,100.558c-22.127-20.784,2.226-60.743,32.539-35.518
				c0,0,11.929-4.926,13.113,11.813c0.779,11-0.271,16.637,1.431,22.275l-44.847,6.954L233.358,100.558z"/>
			<path style="fill-rule:evenodd;clip-rule:evenodd;fill:#3F2C44;" d="M233.358,100.558c-1.085-1.019-2.054-2.085-2.92-3.187
				c-1.625-3.045,1.917-3.284,1.917-3.284l17.482,5.583l7.876-23.584c5.143,3.106,19.449-1.097,15.667-10.894
				c2.659,1.316,5.124,4.512,5.63,11.661c0.779,11-0.271,16.637,1.431,22.275l-44.847,6.954L233.358,100.558z"/>
			<path style="fill-rule:evenodd;clip-rule:evenodd;fill:#E8685B;" d="M234.681,100.194c3.251-0.503,6.296,1.723,6.8,4.974
				c0.503,3.251-1.724,6.296-4.975,6.8c-3.251,0.504-6.296-1.723-6.8-4.974C229.202,103.743,231.43,100.698,234.681,100.194z"/>
			<path style="fill-rule:evenodd;clip-rule:evenodd;fill:#E8685B;" d="M275.012,93.94c3.251-0.503,6.296,1.723,6.801,4.974
				c0.504,3.251-1.724,6.296-4.976,6.8c-3.251,0.504-6.295-1.723-6.8-4.974C269.533,97.489,271.761,94.444,275.012,93.94z"/>
			<path style="fill-rule:evenodd;clip-rule:evenodd;fill:#F4AD85;" d="M248.883,67.503L248.883,67.503
				c11.092-1.719,21.573,5.948,23.292,17.04l2.842,18.326c1.72,11.091-5.948,21.573-17.039,23.292l0,0
				c-11.092,1.72-21.573-5.947-23.292-17.038l-2.841-18.326C230.125,79.704,237.792,69.223,248.883,67.503z"/>
			<path style="fill-rule:evenodd;clip-rule:evenodd;fill:#F09172;" d="M258.234,68.249c7.11,2.302,12.724,8.438,13.941,16.293
				l2.842,18.326c1.501,9.688-4.159,18.909-13.007,22.234c18.55-13.055,5.384-29.756,1.468-35.175
				c-3.918-5.418-5.505-7.8-10.433-4.022c-4.927,3.777-8.969,4.59-8.969,4.59l-5.601-2.652c0,0-0.798-7.631,0.768-9.926
				c1.567-2.294,8.528-4.527,16.846-8.765C256.757,68.813,257.475,68.512,258.234,68.249z"/>
			<path style="fill-rule:evenodd;clip-rule:evenodd;fill:#331C38;" d="M239.79,101.029L239.79,101.029
				c1.087-0.168,2.112,0.582,2.28,1.668l0.399,2.574c0.169,1.085-0.582,2.111-1.668,2.28l0,0c-1.085,0.168-2.111-0.582-2.279-1.668
				l-0.399-2.574C237.955,102.223,238.705,101.197,239.79,101.029z"/>
			<path style="fill-rule:evenodd;clip-rule:evenodd;fill:#331C38;" d="M260.164,98.158L260.164,98.158
				c1.085-0.169,2.111,0.581,2.28,1.667l0.398,2.575c0.169,1.085-0.582,2.111-1.667,2.279l0,0c-1.087,0.169-2.112-0.581-2.281-1.667
				l-0.398-2.574C258.328,99.353,259.078,98.326,260.164,98.158z"/>
			<path style="fill-rule:evenodd;clip-rule:evenodd;fill:#331C38;" d="M236.236,96.527l5.578-0.865
				c0.59-0.091,1.148,0.316,1.239,0.906l0.001,0c0.092,0.589-0.316,1.147-0.907,1.239l-5.578,0.865
				c-0.589,0.091-1.147-0.317-1.238-0.906v-0.001C235.239,97.175,235.646,96.618,236.236,96.527z"/>
			<path style="fill-rule:evenodd;clip-rule:evenodd;fill:#331C38;" d="M256.609,93.656l5.578-0.865
				c0.59-0.091,1.147,0.316,1.239,0.906l0,0c0.091,0.59-0.317,1.147-0.906,1.239l-5.578,0.865c-0.59,0.091-1.147-0.317-1.239-0.906
				v-0.001C255.612,94.305,256.02,93.748,256.609,93.656z"/>
			<path style="fill-rule:evenodd;clip-rule:evenodd;fill:#FFFFFF;" d="M257.846,110.052c0.55,3.543-1.877,6.859-5.42,7.409
				c-3.542,0.549-6.859-1.876-7.408-5.42l0.011-0.001c-0.094-0.609,0.327-1.185,0.936-1.279l10.592-1.642
				c0.608-0.095,1.185,0.326,1.278,0.935L257.846,110.052z"/>
			<g>
				<path style="fill-rule:evenodd;clip-rule:evenodd;fill:#E37B64;" d="M239.711,109.016c1.611-0.25,3.121,0.854,3.37,2.465
					c0.25,1.612-0.854,3.121-2.465,3.37c-1.611,0.25-3.121-0.854-3.371-2.465C236.996,110.775,238.1,109.266,239.711,109.016z"/>
				<path style="fill-rule:evenodd;clip-rule:evenodd;fill:#E8685B;" d="M263.416,106.225c1.61-0.25,3.12,0.854,3.37,2.466
					c0.249,1.612-0.855,3.12-2.465,3.37c-1.612,0.25-3.121-0.854-3.37-2.466C260.701,107.984,261.805,106.475,263.416,106.225z"/>
			</g>
			<path style="fill-rule:evenodd;clip-rule:evenodd;fill:#3F2C44;" d="M276.358,93.885l-1.525-1.161l-3.127,0.716
				c0,0-1.043,6.244,2.794,6.098l-0.525-3.395C273.726,94.538,275.399,93.706,276.358,93.885z"/>
			<path style="fill-rule:evenodd;clip-rule:evenodd;fill:#4F3F55;" d="M257.713,76.086c0,0,0.584,11.501,10.44,17.6
				c0,0-6.318-5.028-7.426-11.523c5.169,8.956,9.995,10.515,10.976,11.273c1.044,0.368,2.147,0.554,3.31,0.505l-1.928-18.092
				l-6.973-7.766l-15.463-2.986c0,0-11.939,4.031-12.757,4.542c-0.818,0.511-3.406,2.835-4.289,5.408
				c-0.883,2.573-3.745,10.581-3.745,10.581l2.496,8.459C232.354,94.086,248.43,93.935,257.713,76.086z"/>
			<path style="fill-rule:evenodd;clip-rule:evenodd;fill:#3F2C44;" d="M257.713,76.085c0,0,0.584,11.501,10.439,17.601
				c0,0-6.318-5.028-7.425-11.523c5.169,8.956,9.995,10.515,10.975,11.272c1.045,0.368,2.148,0.554,3.311,0.505l-1.928-18.092
				l-1.772-1.975C267.566,77.132,260.892,78.005,257.713,76.085z"/>
			<path style="fill-rule:evenodd;clip-rule:evenodd;fill:#8E8293;" d="M225.372,86.604c-0.797-3.766-0.727-7.585,0.075-11.177
				c7.388,0.865,21.911,0.14,32.222-15.78c0.839,0.404,1.685,0.855,2.54,1.358C256.846,69.61,247.676,85.363,225.372,86.604z"/>
		</g>
		<g>
			<path style="fill-rule:evenodd;clip-rule:evenodd;fill:#F9C575;" d="M318.054,231.533h71.392c3.161,0,5.747-2.585,5.747-5.746
				v-0.001c0-3.161-2.586-5.747-5.747-5.747h-71.392c-3.161,0-5.747,2.586-5.747,5.747v0.001
				C312.307,228.948,314.893,231.533,318.054,231.533z"/>
			<path style="fill-rule:evenodd;clip-rule:evenodd;fill:#F4A962;" d="M349.7,231.533h39.745c3.161,0,5.747-2.585,5.747-5.746
				v-0.001c0-3.161-2.586-5.747-5.747-5.747H349.7c-3.161,0-5.746,2.586-5.746,5.747v0.001
				C343.954,228.948,346.539,231.533,349.7,231.533z"/>
			<path style="fill-rule:evenodd;clip-rule:evenodd;fill:#F6B87C;" d="M352.048,226.296h18.929c1.195,0,2.173-0.978,2.173-2.173
				v-0.001c0-1.195-0.977-2.173-2.173-2.173h-18.929c-1.195,0-2.173,0.978-2.173,2.173v0.001
				C349.875,225.318,350.852,226.296,352.048,226.296z"/>
			<path style="fill-rule:evenodd;clip-rule:evenodd;fill:#F6B87C;" d="M380.606,226.296h-1.847c-1.195,0-2.174-0.978-2.174-2.173
				v-0.001c0-1.195,0.979-2.173,2.174-2.173h1.847c1.195,0,2.173,0.978,2.173,2.173v0.001
				C382.779,225.318,381.802,226.296,380.606,226.296z"/>
			<path style="fill-rule:evenodd;clip-rule:evenodd;fill:#EEA35D;" d="M350.978,231.533c-2.684,0-5.029-1.248-6.211-3.069h-22.307
				c-3.863,0-7.024-2.587-7.024-5.748c0-0.669,0.141-1.313,0.401-1.911c-2.107,0.995-3.531,2.858-3.531,4.98
				c0,3.161,3.161,5.747,7.025,5.747h13.089H350.978z"/>
		</g>
		<g>
			<path style="fill-rule:evenodd;clip-rule:evenodd;fill:#E95A5E;" d="M393.801,242.938h-82.395c-3.16,0-5.746-2.585-5.746-5.747
				l0,0c0-3.16,2.586-5.747,5.746-5.747h82.395c3.16,0,5.746,2.587,5.746,5.747l0,0C399.547,240.351,396.96,242.938,393.801,242.938
				z"/>
			<path style="fill-rule:evenodd;clip-rule:evenodd;fill:#DA3E3E;" d="M357.798,242.938h-46.393c-3.16,0-5.746-2.585-5.746-5.747
				l0,0c0-3.16,2.586-5.747,5.746-5.747h46.393c3.161,0,5.747,2.587,5.747,5.747l0,0
				C363.545,240.351,360.958,242.938,357.798,242.938z"/>
			<path style="fill-rule:evenodd;clip-rule:evenodd;fill:#E95A5E;" d="M355.451,237.701h-25.577c-1.194,0-2.173-0.979-2.173-2.174
				l0,0c0-1.195,0.977-2.173,2.173-2.173h25.577c1.195,0,2.173,0.978,2.173,2.173l0,0
				C357.624,236.722,356.645,237.701,355.451,237.701z"/>
			<path style="fill-rule:evenodd;clip-rule:evenodd;fill:#E95A5E;" d="M320.244,237.701h1.849c1.193,0,2.173-0.979,2.173-2.174l0,0
				c0-1.195-0.979-2.173-2.173-2.173h-1.849c-1.194,0-2.173,0.978-2.173,2.173l0,0C318.071,236.722,319.05,237.701,320.244,237.701z
				"/>
			<path style="fill-rule:evenodd;clip-rule:evenodd;fill:#E8494B;" d="M356.52,242.938c2.684,0,5.028-1.247,6.211-3.069h26.662
				c3.863,0,7.024-2.587,7.024-5.748c0-0.669-0.142-1.313-0.401-1.911c2.106,0.994,3.53,2.858,3.53,4.98
				c0,3.161-3.161,5.747-7.024,5.747h-17.443H356.52z"/>
		</g>
		<g>
			<path style="fill-rule:evenodd;clip-rule:evenodd;fill:#FFF6E7;" d="M382.766,220.039h-58.033c-2.568,0-4.671-2.103-4.671-4.671
				l0,0c0-2.57,2.103-4.671,4.671-4.671h58.033c2.569,0,4.672,2.102,4.672,4.671l0,0
				C387.438,217.936,385.335,220.039,382.766,220.039z"/>
			<path style="fill-rule:evenodd;clip-rule:evenodd;fill:#FFFFFF;" d="M357.04,220.039h-32.308c-2.568,0-4.671-2.103-4.671-4.671
				l0,0c0-2.57,2.103-4.671,4.671-4.671h32.308c2.569,0,4.672,2.102,4.672,4.671l0,0
				C361.712,217.936,359.609,220.039,357.04,220.039z"/>
			<path style="fill-rule:evenodd;clip-rule:evenodd;fill:#FFFAF1;" d="M355.133,215.782h-15.387c-0.972,0-1.767-0.794-1.767-1.767
				l0,0c0-0.972,0.795-1.767,1.767-1.767h15.387c0.971,0,1.766,0.795,1.766,1.767l0,0
				C356.898,214.987,356.103,215.782,355.133,215.782z"/>
			<path style="fill-rule:evenodd;clip-rule:evenodd;fill:#FFFAF1;" d="M331.917,215.782h1.502c0.973,0,1.768-0.794,1.768-1.767l0,0
				c0-0.972-0.795-1.767-1.768-1.767h-1.502c-0.971,0-1.765,0.795-1.765,1.767l0,0C330.152,214.987,330.946,215.782,331.917,215.782
				z"/>
			<path style="fill-rule:evenodd;clip-rule:evenodd;fill:#FDEFD7;" d="M356.002,220.039c2.182,0,4.088-1.015,5.049-2.495h18.133
				c3.141,0,5.71-2.102,5.71-4.671c0-0.545-0.115-1.067-0.326-1.553c1.712,0.809,2.87,2.323,2.87,4.049
				c0,2.568-2.569,4.671-5.71,4.671h-10.64H356.002z"/>
		</g>
		<g>
			<path style="fill-rule:evenodd;clip-rule:evenodd;fill:#422E47;" d="M205.443,234.84h-19.474v-9.006h9.578
				c1.476,0,2.682-1.207,2.682-2.682l0,0c0-1.476-1.207-2.683-2.682-2.683h-9.578v-3.266h19.474V234.84z"/>
			<path style="fill-rule:evenodd;clip-rule:evenodd;fill:#331C38;" d="M185.969,230.54v-4.706h9.578
				c1.476,0,2.682-1.207,2.682-2.682l0,0c0-1.476-1.207-2.683-2.682-2.683h-9.578v-3.266h16.609v7.825
				c0,3.031-2.48,5.512-5.512,5.512H185.969z"/>
			<path style="fill-rule:evenodd;clip-rule:evenodd;fill:#DA3E3E;" d="M202.177,213.936h-23.003c-1.796,0-3.266,1.471-3.266,3.268
				l0,0c0,1.796,1.47,3.266,3.266,3.266h23.003c1.796,0,3.266-1.47,3.266-3.266l0,0
				C205.443,215.406,203.973,213.936,202.177,213.936z"/>
			<path style="fill-rule:evenodd;clip-rule:evenodd;fill:#FDF7F4;" d="M198.694,234.84c0.051-0.36,0.078-0.725,0.078-1.099l0,0
				c0-4.349-3.559-7.907-7.907-7.907h-16.308c-4.348,0-7.906,3.558-7.906,7.907l0,0c0,0.373,0.026,0.739,0.077,1.099H198.694z"/>
			<path style="fill-rule:evenodd;clip-rule:evenodd;fill:#E0D5D1;" d="M166.786,237.412h38.657c1.01,0,1.836-0.826,1.836-1.835l0,0
				c0-1.01-0.826-1.836-1.836-1.836h-38.657c-1.01,0-1.836,0.826-1.836,1.836l0,0C164.949,236.586,165.775,237.412,166.786,237.412z
				"/>
			<path style="fill-rule:evenodd;clip-rule:evenodd;fill:#FFFFFF;" d="M167.269,235.932h25.58c0.396,0,0.72-0.324,0.72-0.721l0,0
				c0-0.396-0.324-0.72-0.72-0.72h-25.58c-0.396,0-0.721,0.324-0.721,0.72l0,0C166.548,235.608,166.873,235.932,167.269,235.932z"/>
			<path style="fill-rule:evenodd;clip-rule:evenodd;fill:#FFFFFF;" d="M195.536,235.932h-0.346c-0.396,0-0.72-0.324-0.72-0.721l0,0
				c0-0.396,0.324-0.72,0.72-0.72h0.346c0.396,0,0.72,0.324,0.72,0.72l0,0C196.256,235.608,195.932,235.932,195.536,235.932z"/>
			<path style="fill-rule:evenodd;clip-rule:evenodd;fill:#E95A5E;" d="M194.493,214.8h-15.513c-1.11,0-2.018,0.908-2.018,2.018l0,0
				c0,1.11,0.908,2.019,2.018,2.019h15.513c1.11,0,2.018-0.909,2.018-2.019l0,0C196.511,215.708,195.602,214.8,194.493,214.8z"/>
			<path style="fill-rule:evenodd;clip-rule:evenodd;fill:#E95A5E;" d="M199.893,214.8L199.893,214.8
				c1.102,0,2.004,0.901,2.004,2.003v0.028c0,1.102-0.901,2.004-2.004,2.004l0,0c-1.103,0-2.004-0.902-2.004-2.004v-0.028
				C197.889,215.701,198.79,214.8,199.893,214.8z"/>
			<path style="fill-rule:evenodd;clip-rule:evenodd;fill:#FBE5DC;" d="M194.827,233.74l3.945,0.001c0-1.172-0.259-2.286-0.721-3.29
				c-0.469-1.016-1.148-1.917-1.98-2.649c-1.394-1.224-3.217-1.968-5.206-1.968h-4.896h-11.412c-1.405,0-2.728,0.371-3.874,1.021
				h15.286h0.826h0.19c0.606,0,1.197,0.07,1.765,0.2c2.055,0.473,3.811,1.753,4.913,3.485
				C194.268,231.491,194.675,232.577,194.827,233.74z"/>
		</g>
		<path style="fill-rule:evenodd;clip-rule:evenodd;fill:#EEA35D;" d="M231.354,165.276c0.496,3.238,3.338,10.724,4.836,14.53
			c-0.02-0.084-0.527-2.544,4.947-3.158c5.57-0.624,23.566-0.51,27.879,3.796c2.64,2.635,3.913,15.732,0.749,27.781
			c6.721-1.669,11.857-4.123,11.683-6.308c-0.087-1.096-0.149-2.15-0.195-3.173h-0.001c0,0-1.53-10.503,0.635-21.639
			c2.164-11.136,2.861-15.79,2.861-15.79l0.066-6.261c-0.523-0.698-1.023-1.439-1.49-2.23c0,0-0.314-0.928-0.87-0.169
			c-0.557,0.759-5.322,11.876-14.943,13.379C257.888,167.536,234.523,167.884,231.354,165.276z"/>
		<path style="fill-rule:evenodd;clip-rule:evenodd;fill:#F4AD85;" d="M287.577,242.813h6.523c3.134,0,2.165-3.23,2.165-5.401
			c0-0.574,2.412-2.487,2.421-3.249c0.039-3.181-2.422-6.013-4.106-4.31c-2.177,2.203-7.825,3.088-11.375,4.595
			c-1.074,0.456-4.746,2.484-4.746,2.963v0.001C278.459,240.383,284.606,242.813,287.577,242.813z"/>
		<path style="fill-rule:evenodd;clip-rule:evenodd;fill:#DA3E3E;" d="M304.581,242.938L304.581,242.938L304.581,242.938
			c0-3.039-2.488-5.526-5.525-5.526h-51.344c-3.035,0-5.524,2.487-5.524,5.526l0,0l0,0H304.581z"/>
		<path style="fill-rule:evenodd;clip-rule:evenodd;fill:#331C38;" d="M440.035,435.602H60.762c-3.897,0-7.086,3.188-7.086,7.086
			l0,0c0,3.897,3.189,7.086,7.086,7.086h33.815c3.998,0,7.269,3.271,7.269,7.269l0,0c0,3.998-3.271,7.27-7.269,7.27H80.639
			c-2.482,0-4.515,2.031-4.515,4.515l0,0c0,2.483,2.032,4.517,4.515,4.517c96.484,0,209.73,0,306.214,0
			c4.059,0,7.379-3.32,7.379-7.379l0,0c0-4.059-3.321-7.38-7.379-7.38h-33.734c-2.423,0-4.405-1.982-4.405-4.405l0,0
			c0-2.423,1.982-4.405,4.405-4.405h86.916c3.896,0,7.086-3.189,7.086-7.086l0,0C447.121,438.789,443.932,435.602,440.035,435.602
			L440.035,435.602z M407.613,473.343c-4.028,0-7.324-3.297-7.324-7.324v-0.109c0-4.029,3.296-7.325,7.324-7.325l0,0
			c4.029,0,7.324,3.296,7.324,7.325v0.109C414.938,470.046,411.643,473.343,407.613,473.343L407.613,473.343z"/>
		<path style="fill-rule:evenodd;clip-rule:evenodd;fill:#FFFFFF;" d="M199.59,143.369c0-0.482,0.391-0.873,0.873-0.873
			c0.481,0,0.872,0.391,0.872,0.873v1.147h1.149c0.482,0,0.872,0.392,0.872,0.873c0,0.482-0.391,0.874-0.872,0.874h-1.149v1.148
			c0,0.481-0.391,0.872-0.872,0.872c-0.481,0-0.873-0.391-0.873-0.872v-1.148h-1.147c-0.482,0-0.873-0.391-0.873-0.874
			c0-0.48,0.391-0.873,0.873-0.873h1.147V143.369z"/>
		<path style="fill-rule:evenodd;clip-rule:evenodd;fill:#FFFFFF;" d="M85.099,240.776c0-0.482,0.391-0.873,0.873-0.873
			c0.481,0,0.872,0.39,0.872,0.873v1.147h1.148c0.482,0,0.873,0.391,0.873,0.873s-0.391,0.873-0.873,0.873h-1.148v1.148
			c0,0.481-0.391,0.873-0.872,0.873c-0.482,0-0.873-0.391-0.873-0.873v-1.148h-1.148c-0.481,0-0.873-0.391-0.873-0.873
			s0.391-0.873,0.873-0.873h1.148V240.776z"/>
		<path style="fill-rule:evenodd;clip-rule:evenodd;fill:#FFFFFF;" d="M134.955,363.711c0-0.482,0.391-0.872,0.873-0.872
			c0.482,0,0.873,0.39,0.873,0.872v1.147h1.148c0.482,0,0.873,0.392,0.873,0.873c0,0.482-0.391,0.872-0.873,0.872H136.7v1.149
			c0,0.481-0.391,0.873-0.873,0.873c-0.482,0-0.873-0.392-0.873-0.873v-1.149h-1.148c-0.481,0-0.872-0.39-0.872-0.872
			c0-0.481,0.391-0.873,0.872-0.873h1.148V363.711z"/>
		<path style="fill-rule:evenodd;clip-rule:evenodd;fill:#FFFFFF;" d="M320.505,141.297c0-0.482,0.392-0.873,0.872-0.873
			c0.482,0,0.873,0.39,0.873,0.873v1.147h1.148c0.481,0,0.873,0.392,0.873,0.873c0,0.482-0.392,0.872-0.873,0.872h-1.148v1.148
			c0,0.482-0.391,0.872-0.873,0.872c-0.481,0-0.872-0.391-0.872-0.872v-1.148h-1.147c-0.482,0-0.872-0.39-0.872-0.872
			c0-0.481,0.39-0.873,0.872-0.873h1.147V141.297z"/>
		<path style="fill-rule:evenodd;clip-rule:evenodd;fill:#FFFFFF;" d="M191.029,397.852c0-0.482,0.391-0.872,0.873-0.872
			c0.481,0,0.872,0.391,0.872,0.872v1.147h1.148c0.482,0,0.872,0.393,0.872,0.874c0,0.482-0.391,0.872-0.872,0.872h-1.148v1.148
			c0,0.48-0.391,0.872-0.872,0.872c-0.482,0-0.873-0.392-0.873-0.872v-1.148h-1.148c-0.481,0-0.873-0.391-0.873-0.872
			c0-0.481,0.391-0.874,0.873-0.874h1.148V397.852z"/>
		<path style="fill-rule:evenodd;clip-rule:evenodd;fill:#FFFFFF;" d="M42.371,204.836c0-0.482,0.391-0.872,0.873-0.872
			c0.481,0,0.873,0.391,0.873,0.872v1.148h1.148c0.482,0,0.873,0.392,0.873,0.872c0,0.482-0.391,0.873-0.873,0.873h-1.148v1.149
			c0,0.481-0.391,0.872-0.873,0.872c-0.482,0-0.873-0.391-0.873-0.872v-1.149h-1.148c-0.482,0-0.872-0.39-0.872-0.873
			c0-0.48,0.391-0.872,0.872-0.872h1.148V204.836z"/>
		<path style="fill-rule:evenodd;clip-rule:evenodd;fill:#FFFFFF;" d="M59.871,388.234c0-0.482,0.391-0.872,0.873-0.872
			c0.482,0,0.873,0.39,0.873,0.872v1.147h1.148c0.482,0,0.873,0.392,0.873,0.873c0,0.482-0.391,0.872-0.873,0.872h-1.148v1.148
			c0,0.481-0.391,0.873-0.873,0.873c-0.482,0-0.873-0.392-0.873-0.873v-1.148h-1.148c-0.481,0-0.872-0.39-0.872-0.872
			c0-0.482,0.391-0.873,0.872-0.873h1.148V388.234z"/>
		<path style="fill-rule:evenodd;clip-rule:evenodd;fill:#FFFFFF;" d="M50.96,407.365c-0.481,0-0.873-0.391-0.873-0.873
			c0-0.481,0.391-0.873,0.873-0.873h53.797c0.482,0,0.873,0.392,0.873,0.873c0,0.482-0.391,0.873-0.873,0.873H50.96L50.96,407.365z
			 M45.418,405.619c0.481,0,0.873,0.392,0.873,0.873c0,0.482-0.391,0.873-0.873,0.873h-3.406c-0.482,0-0.873-0.391-0.873-0.873
			c0-0.481,0.391-0.873,0.873-0.873H45.418z"/>
		<path style="fill-rule:evenodd;clip-rule:evenodd;fill:#FFFFFF;" d="M73.182,227.836c0.482,0,0.873-0.39,0.873-0.872
			c0-0.481-0.391-0.873-0.873-0.873H36.019c-0.481,0-0.872,0.392-0.872,0.873c0,0.482,0.391,0.872,0.872,0.872H73.182
			L73.182,227.836z M78.723,226.091c-0.481,0-0.872,0.392-0.872,0.873c0,0.482,0.391,0.872,0.872,0.872h3.406
			c0.481,0,0.873-0.39,0.873-0.872c0-0.481-0.391-0.873-0.873-0.873H78.723z"/>
		<path style="fill-rule:evenodd;clip-rule:evenodd;fill:#CAE7E2;" d="M399.645,90.814c0.482,0,0.873-0.39,0.873-0.873
			c0-0.481-0.392-0.873-0.873-0.873h-37.164c-0.48,0-0.871,0.391-0.871,0.873c0,0.482,0.391,0.873,0.871,0.873H399.645
			L399.645,90.814z M405.188,89.069c-0.482,0-0.873,0.391-0.873,0.873c0,0.482,0.391,0.873,0.873,0.873h3.405
			c0.482,0,0.872-0.39,0.872-0.873c0-0.481-0.39-0.873-0.872-0.873H405.188z"/>
		<path style="fill-rule:evenodd;clip-rule:evenodd;fill:#CAE7E2;" d="M169.465,99.859c0.481,0,0.873-0.39,0.873-0.873
			c0-0.481-0.391-0.872-0.873-0.872h-37.163c-0.482,0-0.872,0.391-0.872,0.872c0,0.483,0.391,0.873,0.872,0.873H169.465
			L169.465,99.859z M175.007,98.114c-0.481,0-0.872,0.391-0.872,0.872c0,0.483,0.391,0.873,0.872,0.873h3.406
			c0.481,0,0.872-0.39,0.872-0.873c0-0.481-0.391-0.872-0.872-0.872H175.007z"/>
		<path style="fill-rule:evenodd;clip-rule:evenodd;fill:#CAE7E2;" d="M72.358,322.846c0.481,0,0.873-0.391,0.873-0.873
			c0-0.481-0.391-0.872-0.873-0.872H35.195c-0.481,0-0.872,0.391-0.872,0.872c0,0.482,0.391,0.873,0.872,0.873H72.358
			L72.358,322.846z M77.9,321.101c-0.482,0-0.873,0.391-0.873,0.872c0,0.482,0.391,0.873,0.873,0.873h3.406
			c0.481,0,0.872-0.391,0.872-0.873c0-0.481-0.391-0.872-0.872-0.872H77.9z"/>
		<path style="fill-rule:evenodd;clip-rule:evenodd;fill:#CAE7E2;" d="M95.79,92.171c0-0.482,0.391-0.873,0.873-0.873
			c0.482,0,0.873,0.391,0.873,0.873v1.147h1.148c0.482,0,0.873,0.391,0.873,0.873c0,0.482-0.391,0.873-0.873,0.873h-1.148v1.148
			c0,0.482-0.391,0.872-0.873,0.872c-0.482,0-0.873-0.39-0.873-0.872v-1.148h-1.148c-0.481,0-0.872-0.39-0.872-0.873
			c0-0.481,0.391-0.873,0.872-0.873h1.148V92.171z"/>
		<path style="fill-rule:evenodd;clip-rule:evenodd;fill:#CAE7E2;" d="M400.846,69.443c0-0.481,0.391-0.873,0.872-0.873
			c0.481,0,0.873,0.391,0.873,0.873v1.148h1.147c0.481,0,0.873,0.39,0.873,0.873c0,0.481-0.392,0.872-0.873,0.872h-1.147v1.147
			c0,0.482-0.392,0.873-0.873,0.873c-0.482,0-0.872-0.391-0.872-0.873v-1.147h-1.148c-0.482,0-0.873-0.391-0.873-0.872
			c0-0.482,0.391-0.873,0.873-0.873h1.148V69.443z"/>
		<path style="fill-rule:evenodd;clip-rule:evenodd;fill:#CAE7E2;" d="M51.979,281.641c0-0.481,0.391-0.873,0.873-0.873
			c0.481,0,0.873,0.392,0.873,0.873v1.148h1.148c0.482,0,0.872,0.39,0.872,0.872c0,0.482-0.391,0.873-0.872,0.873h-1.148v1.147
			c0,0.482-0.392,0.872-0.873,0.872c-0.482,0-0.873-0.39-0.873-0.872v-1.147h-1.148c-0.482,0-0.873-0.392-0.873-0.873
			c0-0.482,0.391-0.872,0.873-0.872h1.148V281.641z"/>
		<path style="fill-rule:evenodd;clip-rule:evenodd;fill:#CAE7E2;" d="M417.629,236.084c0-0.482,0.391-0.873,0.873-0.873
			c0.481,0,0.872,0.391,0.872,0.873v1.148h1.148c0.481,0,0.873,0.39,0.873,0.873c0,0.481-0.392,0.872-0.873,0.872h-1.148v1.148
			c0,0.482-0.391,0.873-0.872,0.873c-0.483,0-0.873-0.391-0.873-0.873v-1.148h-1.147c-0.482,0-0.872-0.391-0.872-0.872
			c0-0.482,0.39-0.873,0.872-0.873h1.147V236.084z"/>
		<path style="fill-rule:evenodd;clip-rule:evenodd;fill:#CAE7E2;" d="M13.068,421.478c0-0.482,0.391-0.874,0.872-0.874
			c0.482,0,0.873,0.392,0.873,0.874v1.147h1.148c0.482,0,0.873,0.391,0.873,0.873c0,0.482-0.391,0.872-0.873,0.872h-1.148v1.148
			c0,0.482-0.391,0.873-0.873,0.873c-0.481,0-0.872-0.391-0.872-0.873v-1.148H11.92c-0.481,0-0.872-0.391-0.872-0.872
			c0-0.482,0.391-0.873,0.872-0.873h1.148V421.478z"/>
		<path style="fill-rule:evenodd;clip-rule:evenodd;fill:#CAE7E2;" d="M440.407,262.459c0-0.482,0.392-0.873,0.873-0.873
			c0.481,0,0.872,0.392,0.872,0.873v1.148h1.148c0.481,0,0.872,0.391,0.872,0.872c0,0.481-0.391,0.872-0.872,0.872h-1.148v1.148
			c0,0.482-0.391,0.872-0.872,0.872c-0.482,0-0.873-0.39-0.873-0.872v-1.148h-1.147c-0.483,0-0.872-0.391-0.872-0.872
			c0-0.482,0.39-0.872,0.872-0.872h1.147V262.459z"/>
		<path style="fill-rule:evenodd;clip-rule:evenodd;fill:#F4AD85;" d="M189.933,211.06c-2.906,1.409-5.873,3.415-7.55,4.629
			c-1.423,1.028,0.931,1.385,2.512,1.216c2.436-0.262,5.095-1.528,5.278-1.589c0.36-0.12,4.736,1.618,7.613-2.758
			c2.877-4.376,1.679-2.817,1.679-2.817L189.933,211.06z"/>
		<path style="fill-rule:evenodd;clip-rule:evenodd;fill:#F4AD85;" d="M184.21,220.461c1.121-1.773,0.723-2.485,4.674-2.269
			c4.376,0.239,6.354-0.18,5.814,1.019c-1.288,2.865-0.737,2.887-10.277,2.361C183.674,221.53,183.982,220.821,184.21,220.461z"/>
		<path style="fill-rule:evenodd;clip-rule:evenodd;fill:#F09172;" d="M201.079,213.148c-1.413,0.687-3.008,0.393-4.76,1.638h5.508
			c2.165-1.922,8.459-5.636,14.558-10.542c2.725-2.192,5.412-4.623,7.675-7.237c3.279-3.79,5.559-7.691,7.718-11.979
			c0.839-1.667,1.519-3.224,1.565-3.306c-1.189-1.327-2.876-2.523-4.487-3.486c-0.662,11.531-6.889,16.357-9.149,19.375
			c-0.899,1.2-2.143,2.528-3.567,3.887C210.607,206.775,202.357,212.526,201.079,213.148z"/>
	</g>
</g>
<g id="DESIGNED_BY_FREEPIK">
	<path style="fill:#F6F9FA;" d="M260.646,477.158c-0.941,0.966-1.562,2.167-1.791,3.473l-0.748-0.132
		c0.107-0.604,0.289-1.189,0.539-1.743l-0.451-0.234c-0.057,0.026-0.117,0.045-0.184,0.052c-0.33,0.039-0.631-0.197-0.67-0.528
		c-0.037-0.331,0.199-0.631,0.529-0.67c0.31-0.036,0.592,0.169,0.66,0.466l0.465,0.241c0.305-0.522,0.676-1.01,1.107-1.453
		L260.646,477.158z M262.596,475.759c0.936-0.447,1.941-0.674,2.996-0.674c0.496,0,0.992,0.053,1.475,0.158l0.16-0.741
		c-0.535-0.116-1.084-0.175-1.635-0.175c-0.172,0-0.342,0.006-0.51,0.017l-0.074-0.626c0.188-0.149,0.297-0.389,0.266-0.645
		c-0.045-0.393-0.402-0.674-0.795-0.628c-0.393,0.046-0.674,0.402-0.627,0.796c0.029,0.254,0.189,0.461,0.404,0.563l0.072,0.624
		c-0.713,0.116-1.402,0.332-2.059,0.645L262.596,475.759z M272.047,475.677c-0.309,0.038-0.535,0.304-0.529,0.608l-0.416,0.363
		c-0.418-0.43-0.891-0.813-1.408-1.14l-0.404,0.642c1.135,0.715,2.021,1.727,2.564,2.925l0.69-0.313
		c-0.25-0.554-0.566-1.071-0.941-1.545l0.402-0.351c0.061,0.012,0.125,0.016,0.189,0.007c0.332-0.04,0.566-0.341,0.525-0.672
		C272.68,475.871,272.379,475.636,272.047,475.677z M265.045,484.535c-0.387,0.023-0.775,0.035-1.158,0.035
		c-0.879,0-1.732-0.061-2.478-0.18c-0.391-0.061-0.846-0.154-1.27-0.292c1.047,1.861,3.068,3.125,5.389,3.125
		c2.855,0,5.262-1.916,5.949-4.503c-0.682,0.449-1.506,0.825-2.459,1.122C267.838,484.211,266.463,484.45,265.045,484.535z
		 M271.623,481.039c0.025,0.191,0.041,0.387,0.045,0.581c-1.375,1.201-3.791,1.985-6.672,2.159
		c-2.641,0.159-4.674-0.248-5.348-0.731c-0.09-0.412-0.137-0.836-0.137-1.261c0-3.277,2.729-5.943,6.08-5.943
		C268.65,475.844,271.244,478.077,271.623,481.039z M265.281,480.509c0-1.02-0.83-1.851-1.85-1.851c-1.02,0-1.85,0.83-1.85,1.851
		c0,1.02,0.83,1.85,1.85,1.85C264.451,482.358,265.281,481.528,265.281,480.509z M269.529,480.09c0-0.75-0.609-1.36-1.359-1.36
		s-1.361,0.61-1.361,1.36s0.611,1.36,1.361,1.36S269.529,480.84,269.529,480.09z M279.369,478.479c0-0.666,0.293-0.938,0.844-1.007
		c0.576-0.071,1.088,0.122,1.383,0.238v-1.729c-0.434-0.186-0.947-0.308-1.59-0.308c-1.674,0-2.568,1.103-2.568,2.782v0.889h-1.34
		v1.717h1.34v5.455h1.932v-5.455h2.229v-1.717h-2.229V478.479z M286.223,479.153c-0.881,0-1.568,0.304-2.02,0.977v-0.784h-1.873
		v7.172h1.932v-3.908c0-1.065,0.615-1.613,1.51-1.613c0.168,0,0.35,0.017,0.525,0.046l1.021-1.552
		C287.07,479.281,286.637,479.153,286.223,479.153z M293.965,482.921c0,0.222-0.016,0.488-0.037,0.651h-5.084
		c0.207,1.036,0.932,1.487,1.842,1.487c0.623,0,1.295-0.252,1.815-0.689l1.133,1.243c-0.814,0.748-1.852,1.089-3.057,1.089
		c-2.199,0-3.725-1.496-3.725-3.753c0-2.258,1.48-3.797,3.627-3.797C292.543,479.153,293.957,480.685,293.965,482.921z
		 M292.025,482.255c-0.178-0.918-0.732-1.437-1.561-1.437c-0.91,0-1.443,0.548-1.613,1.437H292.025z M301.619,482.921
		c0,0.222-0.016,0.488-0.037,0.651h-5.086c0.207,1.036,0.934,1.487,1.844,1.487c0.621,0,1.295-0.252,1.813-0.689l1.133,1.243
		c-0.814,0.748-1.85,1.089-3.057,1.089c-2.199,0-3.723-1.496-3.723-3.753c0-2.258,1.48-3.797,3.627-3.797
		C300.197,479.153,301.611,480.685,301.619,482.921z M299.68,482.255c-0.178-0.918-0.734-1.437-1.563-1.437
		c-0.91,0-1.443,0.548-1.613,1.437H299.68z M309.965,482.928c0,2.154-1.496,3.775-3.473,3.775c-0.961,0-1.643-0.378-2.109-0.933
		v3.708h-1.924v-10.133h1.887v0.792c0.467-0.585,1.154-0.984,2.139-0.984C308.469,479.153,309.965,480.774,309.965,482.928z
		 M307.98,482.928c0-1.095-0.711-1.976-1.85-1.976c-1.096,0-1.844,0.844-1.844,1.976c0,1.133,0.748,1.977,1.844,1.977
		C307.27,484.904,307.98,484.023,307.98,482.928z M311.832,475.756c-0.697,0-1.229,0.548-1.229,1.243
		c0,0.696,0.531,1.229,1.229,1.229c0.695,0,1.236-0.533,1.236-1.229C313.068,476.304,312.527,475.756,311.832,475.756z
		 M310.877,486.518h1.932v-7.172h-1.932V486.518z M317.623,482.721l3.479-3.375h-2.367l-2.703,2.554v-6.04H314.1v10.658h1.932
		v-2.901l2.717,2.901h2.377L317.623,482.721z M184.412,476.683h1.099v9.771h-1.099v-1.055c-0.527,0.718-1.392,1.23-2.388,1.23
		c-1.846,0-3.149-1.406-3.149-3.706c0-2.256,1.289-3.721,3.149-3.721c0.952,0,1.816,0.469,2.388,1.245V476.683z M184.412,481.326
		c-0.395-0.615-1.245-1.143-2.124-1.143c-1.421,0-2.271,1.172-2.271,2.739c0,1.567,0.85,2.725,2.271,2.725
		c0.879,0,1.729-0.498,2.124-1.113V481.326z M193.815,482.996v0.278h-5.727c0.088,1.333,1.025,2.446,2.549,2.446
		c0.806,0,1.626-0.322,2.182-0.894l0.527,0.718c-0.703,0.703-1.654,1.084-2.811,1.084c-2.095,0-3.604-1.509-3.604-3.721
		c0-2.051,1.465-3.706,3.486-3.706C192.557,479.202,193.815,480.872,193.815,482.996z M192.732,482.469
		c-0.015-1.055-0.718-2.358-2.329-2.358c-1.509,0-2.256,1.274-2.314,2.358H192.732z M195.866,481.209
		c0-0.63,0.601-1.113,1.567-1.113c0.908,0,1.685,0.381,2.109,0.894l0.513-0.762c-0.571-0.571-1.421-1.025-2.622-1.025
		c-1.685,0-2.637,0.938-2.637,2.036c0,2.622,4.38,1.567,4.38,3.281c0,0.703-0.586,1.216-1.67,1.216c-0.967,0-1.86-0.469-2.329-1.011
		l-0.571,0.791c0.718,0.762,1.699,1.113,2.856,1.113c1.831,0,2.783-0.952,2.783-2.139
		C200.246,481.736,195.866,482.762,195.866,481.209z M202.209,476.888c-0.396,0-0.732,0.337-0.732,0.747
		c0,0.41,0.337,0.732,0.732,0.732c0.41,0,0.747-0.322,0.747-0.732C202.956,477.225,202.619,476.888,202.209,476.888z
		 M201.667,486.453h1.099v-7.075h-1.099V486.453z M209.708,479.378h1.099v6.87c0,2.344-1.641,3.076-3.369,3.076
		c-1.201,0-2.021-0.235-2.855-1.055l0.556-0.82c0.586,0.703,1.289,0.967,2.3,0.967c1.172,0,2.27-0.571,2.27-2.124v-1.011
		c-0.513,0.718-1.377,1.26-2.373,1.26c-1.846,0-3.15-1.377-3.15-3.662c0-2.271,1.289-3.677,3.15-3.677
		c0.952,0,1.802,0.469,2.373,1.245V479.378z M209.708,481.326c-0.381-0.615-1.23-1.143-2.109-1.143c-1.421,0-2.27,1.128-2.27,2.695
		c0,1.553,0.849,2.695,2.27,2.695c0.879,0,1.728-0.542,2.109-1.157V481.326z M216.256,479.202c-1.055,0-2.021,0.615-2.52,1.201
		v-1.025h-1.099v7.075h1.099v-5.171c0.41-0.571,1.23-1.099,2.095-1.099c0.952,0,1.582,0.396,1.582,1.641v4.629h1.099v-4.966
		C218.512,479.949,217.735,479.202,216.256,479.202z M226.816,482.996v0.278h-5.727c0.088,1.333,1.024,2.446,2.548,2.446
		c0.806,0,1.626-0.322,2.183-0.894l0.527,0.718c-0.703,0.703-1.655,1.084-2.813,1.084c-2.094,0-3.604-1.509-3.604-3.721
		c0-2.051,1.465-3.706,3.486-3.706C225.557,479.202,226.816,480.872,226.816,482.996z M225.732,482.469
		c-0.015-1.055-0.718-2.358-2.329-2.358c-1.509,0-2.256,1.274-2.313,2.358H225.732z M233.35,476.683h1.099v9.771h-1.099v-1.055
		c-0.527,0.718-1.392,1.23-2.388,1.23c-1.846,0-3.149-1.406-3.149-3.706c0-2.256,1.289-3.721,3.149-3.721
		c0.952,0,1.816,0.469,2.388,1.245V476.683z M233.35,481.326c-0.395-0.615-1.245-1.143-2.124-1.143
		c-1.421,0-2.271,1.172-2.271,2.739c0,1.567,0.85,2.725,2.271,2.725c0.879,0,1.729-0.498,2.124-1.113V481.326z M246.327,482.923
		c0,2.3-1.304,3.706-3.149,3.706c-0.996,0-1.86-0.513-2.388-1.23v1.055h-1.099v-9.771h1.099v3.765
		c0.571-0.776,1.421-1.245,2.388-1.245C245.023,479.202,246.327,480.667,246.327,482.923z M245.185,482.923
		c0-1.567-0.85-2.739-2.285-2.739c-0.864,0-1.729,0.527-2.109,1.143v3.208c0.381,0.615,1.245,1.113,2.109,1.113
		C244.335,485.647,245.185,484.49,245.185,482.923z M250.238,485.179l-2.358-5.801h-1.187l2.959,7.148l-0.469,1.069
		c-0.249,0.586-0.571,0.747-1.055,0.747c-0.176,0-0.439-0.044-0.601-0.117l-0.176,0.995c0.205,0.06,0.571,0.103,0.806,0.103
		c0.938-0.015,1.655-0.411,2.08-1.435l3.545-8.511h-1.201L250.238,485.179z"/>
</g>
</svg>
